<svg width="182" height="53" viewBox="0 0 182 53" fill="none" xmlns="http://www.w3.org/2000/svg">
<g clip-path="url(#clip0)">
<path fill-rule="evenodd" clip-rule="evenodd" d="M2.44624 22.042H6.83927L6.58445 23.8805C7.43044 23.1205 8.28663 22.535 9.16319 22.155C10.0296 21.7646 10.9265 21.5695 11.8337 21.5695C13.383 21.5695 14.6468 22.0728 15.6355 23.0691C16.1248 23.5621 16.5019 24.127 16.7465 24.7639C16.9912 25.3904 17.1135 26.0786 17.1135 26.8387C17.1135 27.1879 17.0931 27.6398 17.0421 28.1637C17.0013 28.6978 16.93 29.3141 16.8383 30.0228L15.4623 40.1914H11.0794L12.4147 30.2693C12.486 29.766 12.5268 29.3038 12.5675 28.934C12.5981 28.5437 12.6185 28.215 12.6185 27.9685C12.6185 27.2393 12.4147 26.6641 11.9968 26.2738C11.8031 26.0786 11.5483 25.9348 11.2425 25.8321C10.9469 25.7294 10.6207 25.678 10.2436 25.678C9.49955 25.678 8.76568 25.9348 8.02162 26.4586C7.28775 26.9722 6.71696 27.6912 6.31944 28.6156C6.11559 29.0676 5.93212 29.7146 5.75885 30.5774C5.56519 31.43 5.40211 32.4982 5.23902 33.7513L4.38284 40.1811H0L2.44624 22.042Z" fill="#15B4E9"/>
<path fill-rule="evenodd" clip-rule="evenodd" d="M33.3809 29.1397C33.0548 28.0407 32.5044 27.1882 31.7399 26.613C31.3526 26.3357 30.9245 26.1097 30.4556 25.9659C29.997 25.8118 29.4873 25.7502 28.9471 25.7502C27.8667 25.7502 26.8984 26.0481 26.032 26.6335C25.5937 26.9314 25.2166 27.2703 24.8802 27.7017C24.5643 28.1229 24.2789 28.6056 24.0546 29.1295L33.3809 29.1397ZM36.1329 36.9151C35.2666 38.0758 34.1046 38.9899 32.6776 39.6678C31.954 40.0068 31.2099 40.2533 30.4047 40.4279C29.6198 40.6025 28.7738 40.6744 27.9075 40.6744C25.186 40.6744 23.0252 39.9041 21.4453 38.3326C20.6503 37.5519 20.0591 36.6481 19.6718 35.6107C19.2743 34.5835 19.0806 33.4023 19.0806 32.1184C19.0806 29.1705 20.0591 26.6746 22.0365 24.6306C23.0252 23.6035 24.1056 22.8331 25.2981 22.3298C26.4907 21.8265 27.7852 21.5595 29.1815 21.5595C30.8633 21.5595 32.3617 21.9395 33.6765 22.6791C34.9812 23.4186 36.0208 24.5176 36.7853 25.9351C37.1624 26.6438 37.4478 27.3936 37.6313 28.164C37.8249 28.9343 37.9167 29.7457 37.9167 30.588C37.9167 30.8448 37.8963 31.1221 37.8759 31.4302C37.8453 31.7384 37.8045 32.0671 37.7536 32.4163H23.4431C23.494 33.6796 23.9018 34.6862 24.6764 35.436C25.0739 35.8161 25.5326 36.0934 26.0524 36.2783C26.5926 36.4632 27.194 36.5453 27.8769 36.5453C28.7025 36.5453 29.4873 36.4118 30.211 36.1242C30.9449 35.8572 31.6278 35.436 32.2597 34.8711L36.1329 36.9151Z" fill="#15B4E9"/>
<path fill-rule="evenodd" clip-rule="evenodd" d="M51.4117 35.9699C52.2068 35.4871 52.8897 34.7168 53.4299 33.6691C53.9803 32.6112 54.2555 31.5327 54.2555 30.4644C54.2555 29.0265 53.8478 27.8658 53.0222 26.9825C52.6043 26.5408 52.1252 26.2121 51.585 25.9964C51.0448 25.7807 50.4332 25.678 49.7707 25.678C48.2011 25.678 46.8658 26.2635 45.7854 27.4344C45.235 28.0199 44.8171 28.6875 44.5521 29.4476C44.2769 30.1974 44.1444 31.0396 44.1444 31.9641C44.1444 33.3918 44.5521 34.5422 45.3777 35.4152C45.7854 35.8466 46.2644 36.165 46.8047 36.391C47.3245 36.6067 47.936 36.7197 48.5782 36.7197C49.6484 36.6991 50.5963 36.4526 51.4117 35.9699ZM55.1728 22.042H59.5659L57.0687 40.2119H52.7266L52.9916 38.2604C52.0233 39.154 51.1365 39.7908 50.3109 40.1503C49.893 40.3249 49.4547 40.4584 48.9961 40.5509C48.517 40.6331 48.038 40.6844 47.5181 40.6844C45.1433 40.6844 43.2576 39.8011 41.851 38.0344C41.1477 37.1511 40.6279 36.1958 40.2814 35.1687C39.9348 34.121 39.7513 33.022 39.7513 31.8408C39.7513 30.0433 40.1998 28.3486 41.0968 26.7257C41.9835 25.1028 43.1965 23.8394 44.6948 22.9356C45.4592 22.4734 46.2237 22.1447 47.0187 21.9187C47.8137 21.6825 48.6189 21.5695 49.4446 21.5695C50.5454 21.5695 51.5748 21.8365 52.5023 22.3398C52.9712 22.5966 53.3993 22.9253 53.7866 23.2848C54.1638 23.6648 54.5205 24.0962 54.8161 24.5893L55.1728 22.042Z" fill="#15B4E9"/>
<path fill-rule="evenodd" clip-rule="evenodd" d="M62.7358 22.0417H66.6498L66.3338 24.5068C66.9148 23.531 67.5671 22.7915 68.2704 22.3088C68.9737 21.826 69.728 21.5795 70.5536 21.5795C70.9613 21.5795 71.369 21.6925 71.7971 21.8979L70.1968 25.9448C70.0337 25.8832 69.891 25.8421 69.7585 25.8113C69.6362 25.7805 69.5343 25.7702 69.4629 25.7702C68.617 25.7702 67.8423 26.2735 67.1696 27.2801C66.8332 27.7834 66.5275 28.5332 66.2625 29.5603C66.0076 30.5772 65.7732 31.8508 65.5795 33.371L64.7132 40.1911H60.3099L62.7358 22.0417Z" fill="#15B4E9"/>
<path fill-rule="evenodd" clip-rule="evenodd" d="M74.3656 22.042H78.779L78.5038 24.0243C79.309 23.2026 80.1448 22.5966 81.0418 22.1858C81.9388 21.7852 82.8765 21.5695 83.8652 21.5695C84.6704 21.5695 85.4144 21.7133 86.1279 21.9906C86.821 22.2679 87.3816 22.6172 87.8199 23.0486C88.034 23.2643 88.2378 23.521 88.4213 23.8189C88.6047 24.127 88.778 24.4763 88.9309 24.8563C89.7565 23.7778 90.7248 22.9767 91.846 22.4015C92.4066 22.1241 92.9672 21.9187 93.538 21.7852C94.119 21.6311 94.7101 21.5695 95.3013 21.5695C96.8098 21.5695 98.0533 22.0831 99.042 23.0999C99.5313 23.6135 99.9084 24.1989 100.153 24.8563C100.398 25.5239 100.53 26.2532 100.53 27.0749C100.53 27.3831 100.51 27.7323 100.489 28.1123C100.459 28.4924 100.408 28.9135 100.357 29.3654L98.8789 40.1914H94.4859L95.7498 30.865C95.8313 30.2385 95.8925 29.7146 95.9435 29.3038C95.974 28.8929 95.9944 28.5745 95.9944 28.3691C95.9944 27.5063 95.7906 26.8592 95.3625 26.4176C95.1484 26.2019 94.8936 26.0375 94.598 25.9245C94.3024 25.8115 93.9559 25.7499 93.5584 25.7499C92.8143 25.7499 92.0397 26.0272 91.2854 26.5613C90.521 27.1057 89.94 27.8247 89.5323 28.7183C89.3284 29.16 89.145 29.766 88.9717 30.5363C88.7984 31.317 88.6557 32.2414 88.513 33.3199L87.5855 40.1914H83.1823L84.5175 30.3207C84.5786 29.9098 84.6092 29.54 84.65 29.2011C84.6806 28.8621 84.6908 28.5437 84.6908 28.2664C84.6908 27.4755 84.4563 26.8387 84.0079 26.3765C83.7836 26.1402 83.5186 25.9759 83.223 25.8526C82.9173 25.7396 82.5911 25.678 82.214 25.678C81.5107 25.678 80.787 25.9348 80.0429 26.4278C79.2887 26.9208 78.7077 27.5988 78.3 28.4513C78.0961 28.8724 77.9025 29.4168 77.7394 30.0741C77.5763 30.7212 77.4336 31.4813 77.3215 32.3646L76.3124 40.2017H71.9194L74.3656 22.042Z" fill="#0D4D8C"/>
<path fill-rule="evenodd" clip-rule="evenodd" d="M114.097 35.9699C114.902 35.4871 115.585 34.7168 116.125 33.6691C116.685 32.6112 116.961 31.5327 116.961 30.4644C116.961 29.0265 116.543 27.8658 115.707 26.9825C115.299 26.5408 114.82 26.2121 114.27 25.9964C113.73 25.7807 113.118 25.6677 112.435 25.6677C110.855 25.6677 109.52 26.2532 108.419 27.4241C107.869 28.0096 107.461 28.6772 107.186 29.4373C106.911 30.1871 106.768 31.0294 106.768 31.9538C106.768 33.3815 107.186 34.5319 108.022 35.405C108.429 35.8364 108.908 36.1548 109.449 36.3807C109.979 36.5964 110.58 36.7094 111.232 36.7094C112.323 36.6991 113.281 36.4526 114.097 35.9699ZM117.878 22.042H122.312L119.794 40.2119H115.422L115.687 38.2604C114.718 39.154 113.832 39.7908 112.986 40.1503C112.568 40.3249 112.129 40.4584 111.661 40.5509C111.181 40.6331 110.702 40.6844 110.183 40.6844C107.797 40.6844 105.891 39.8011 104.485 38.0344C103.771 37.1511 103.252 36.1958 102.895 35.1687C102.548 34.1313 102.365 33.0323 102.365 31.8511C102.365 30.0536 102.813 28.3588 103.72 26.736C104.628 25.1131 105.83 23.8497 107.359 22.9458C108.124 22.4836 108.888 22.155 109.683 21.929C110.488 21.6825 111.304 21.5695 112.119 21.5695C113.23 21.5695 114.26 21.8365 115.197 22.3398C115.666 22.5966 116.104 22.9253 116.482 23.2848C116.879 23.6648 117.215 24.0962 117.531 24.5893L117.878 22.042Z" fill="#0D4D8C"/>
<path fill-rule="evenodd" clip-rule="evenodd" d="M131.149 26.2638C130.333 26.7568 129.671 27.5374 129.131 28.5851C128.57 29.6533 128.315 30.7215 128.315 31.8C128.315 33.238 128.723 34.3884 129.538 35.2614C129.946 35.7031 130.415 36.0318 130.945 36.2475C131.485 36.4632 132.076 36.5659 132.749 36.5659C134.309 36.5659 135.613 35.9907 136.704 34.8198C137.254 34.2343 137.652 33.5667 137.927 32.8066C138.192 32.0465 138.325 31.2248 138.325 30.2901C138.325 28.8727 137.917 27.7223 137.101 26.8492C136.684 26.4076 136.225 26.0891 135.685 25.8632C135.155 25.6475 134.574 25.5345 133.931 25.5345C132.882 25.5242 131.954 25.781 131.149 26.2638ZM125.757 53L121.333 52.9384L125.492 22.032H129.834L129.569 24.0041C130.517 23.0797 131.404 22.4428 132.229 22.0833C132.637 21.9087 133.085 21.7752 133.554 21.693C134.013 21.6109 134.502 21.5595 135.022 21.5595C137.387 21.5595 139.272 22.4428 140.669 24.2198C141.362 25.1031 141.882 26.0583 142.228 27.0855C142.585 28.1126 142.748 29.2116 142.748 30.3826C142.748 32.18 142.3 33.8748 141.403 35.5079C140.526 37.1308 139.323 38.3942 137.825 39.2981C137.081 39.7603 136.306 40.1095 135.532 40.3252C134.747 40.5512 133.942 40.6641 133.126 40.6641C132.036 40.6641 131.016 40.4074 130.079 39.9041C129.61 39.6473 129.172 39.3289 128.805 38.9591C128.417 38.5893 128.081 38.1579 127.775 37.6649L125.757 53Z" fill="#0D4D8C"/>
<mask id="mask0" mask-type="alpha" maskUnits="userSpaceOnUse" x="145" y="-1" width="37" height="40">
<path fill-rule="evenodd" clip-rule="evenodd" d="M145.551 38.2093C146.366 38.5174 147.08 35.8469 146.468 35.6415C146.366 35.6415 146.366 35.6415 146.265 35.6415C145.245 35.6415 144.532 37.7985 145.551 38.2093ZM149.118 32.8682C148.507 32.9709 147.793 34.3062 147.895 35.3333C148.201 37.0795 149.322 35.7442 149.73 34.5116C150.036 33.6899 150.036 32.8682 149.322 32.8682C149.22 32.8682 149.118 32.8682 149.118 32.8682ZM151.769 33.2791C153.297 33.7926 154.215 29.7868 153.501 29.4787C153.399 29.4787 153.196 29.376 153.094 29.376C151.667 29.4787 150.647 32.6628 151.769 33.2791ZM146.061 30.6085C146.876 30.814 147.793 28.4516 147.182 28.1434C147.08 28.1434 147.08 28.1434 147.08 28.1434C146.163 28.0407 145.347 30.1977 146.061 30.6085ZM173.479 28.1434C170.421 28.8624 170.625 36.5659 173.989 36.4632C177.556 36.4632 177.658 28.0407 174.09 28.0407C173.887 28.0407 173.683 28.1434 173.479 28.1434ZM155.54 30.1977C156.967 30.7112 158.19 26.7054 157.171 26.1919C156.967 26.0891 156.865 26.0891 156.661 26.0891C155.03 26.0891 154.215 29.4787 155.54 30.1977ZM149.118 28.3488C149.934 28.5543 151.055 26.0891 150.036 25.5756C149.934 25.5756 149.934 25.5756 149.934 25.5756C148.813 25.4729 147.997 28.1434 149.118 28.3488ZM152.38 25.6783C153.603 25.9864 154.724 22.8023 153.807 22.2888C153.705 22.2888 153.603 22.2888 153.501 22.2888C152.074 22.1861 151.361 25.062 152.38 25.6783ZM160.534 22.1861C159.311 22.3915 157.986 26.2946 159.821 26.5C160.738 26.6027 161.35 25.4729 161.554 24.343C161.757 23.3159 161.554 22.1861 160.636 22.1861C160.636 22.1861 160.636 22.1861 160.534 22.1861ZM147.08 23.9322C147.793 24.2403 148.609 22.0833 148.201 21.7752C148.099 21.7752 148.099 21.7752 147.997 21.7752C147.182 21.6725 146.57 23.624 147.08 23.9322ZM171.033 20.1318C168.688 20.5426 167.975 26.0891 170.625 26.5C172.256 26.7054 173.173 25.062 173.377 23.3159C173.479 21.6725 172.867 20.1318 171.44 20.1318C171.237 20.0291 171.135 20.0291 171.033 20.1318ZM149.526 21.9806C150.545 22.3915 151.565 19.9264 150.851 19.6182C150.749 19.6182 150.749 19.6182 150.647 19.6182C149.628 19.5155 148.915 21.6725 149.526 21.9806ZM155.54 23.0078C156.865 23.4186 158.19 20.0291 157.069 19.5155C156.967 19.5155 156.865 19.5155 156.763 19.5155C155.336 19.5155 154.419 22.3915 155.54 23.0078ZM164.204 18.3857C163.184 18.7965 161.859 22.1861 163.49 22.6996C164.611 23.0078 165.427 21.7752 165.631 20.5426C165.834 19.4128 165.529 18.2829 164.611 18.2829C164.509 18.3857 164.306 18.3857 164.204 18.3857ZM152.278 19.5155C153.705 20.3372 154.724 16.845 153.603 16.6395H153.501C152.482 16.5368 151.565 19.0019 152.278 19.5155ZM176.435 16.4341C174.192 16.845 173.581 21.4671 175.823 21.8779C177.352 22.0833 178.269 20.6454 178.473 19.2074C178.575 17.8721 178.066 16.4341 176.741 16.4341C176.639 16.4341 176.537 16.4341 176.435 16.4341ZM159.209 20.1318C160.636 20.2345 161.655 16.9477 160.636 16.3314C160.432 16.2287 160.33 16.2287 160.127 16.2287C158.496 16.2287 157.68 20.0291 159.209 20.1318ZM155.642 17.1531C156.661 17.6667 157.986 14.7907 157.171 14.2771C157.069 14.2771 156.967 14.1744 156.865 14.1744C155.54 14.2771 154.724 16.5368 155.642 17.1531ZM169.096 13.969C167.058 14.1744 166.038 18.6938 168.281 19.0019C169.606 19.2074 170.421 17.8721 170.625 16.4341C170.829 15.2016 170.421 13.8663 169.198 13.8663C169.198 13.969 169.198 13.969 169.096 13.969ZM162.573 16.845C164.407 17.564 165.529 13.4554 164.204 13.0446C164.102 13.0446 164 13.0446 163.898 13.0446C162.267 13.0446 161.35 16.2287 162.573 16.845ZM158.598 14.688C159.923 15.2016 161.248 11.812 160.228 11.5039C160.127 11.5039 160.025 11.5039 159.923 11.5039C158.496 11.5039 157.476 14.0717 158.598 14.688ZM173.173 10.4767C171.848 11.093 170.931 13.4554 172.052 14.688C173.479 15.9205 174.702 14.2771 175.008 12.7364C175.212 11.5039 175.008 10.374 173.887 10.374C173.683 10.374 173.479 10.4767 173.173 10.4767ZM166.446 13.6609C168.383 14.2771 169.708 10.6822 168.281 9.65504C168.077 9.55233 167.771 9.44962 167.567 9.44962C165.834 9.55233 165.019 13.25 166.446 13.6609ZM161.961 9.24419C161.248 10.0659 160.942 11.5039 161.554 12.0174C162.369 12.531 163.184 11.812 163.592 10.8876C164 10.0659 164 9.14148 163.49 8.73062C163.286 8.62791 163.184 8.62791 162.98 8.62791C162.471 8.73062 162.165 8.93605 161.961 9.24419ZM171.338 6.26551C170.013 6.57365 168.892 9.03876 170.217 10.0659C171.44 10.8876 172.562 9.65504 172.867 8.31977C173.071 7.29264 172.867 6.26551 171.746 6.26551C171.644 6.16279 171.44 6.26551 171.338 6.26551ZM176.639 9.03876C176.741 9.96318 177.25 10.4767 177.862 10.6822C180.002 11.093 181.225 6.57365 179.085 6.16279C178.983 6.16279 178.881 6.16279 178.677 6.16279C177.658 6.16279 176.741 7.08721 176.639 9.03876ZM166.14 6.16279C165.019 6.36822 164 8.5252 164.917 9.44962C165.732 10.2713 166.854 9.03876 167.261 7.90892C167.567 6.9845 167.465 6.16279 166.446 6.16279C166.446 6.16279 166.242 6.16279 166.14 6.16279ZM168.994 6.16279C170.217 6.88179 171.848 4.41667 170.931 3.49225C170.625 3.28683 170.421 3.18411 170.115 3.18411C168.994 3.18411 167.873 5.54652 168.994 6.16279ZM163.898 5.85465C165.325 6.67636 167.058 3.69768 165.733 2.97869C165.631 2.87597 165.427 2.87597 165.325 2.87597C164.102 2.87597 163.184 5.23838 163.898 5.85465ZM175.925 2.77326C175.823 2.77326 175.721 2.77326 175.619 2.87597C174.906 3.0814 174.192 4.31396 174.192 5.23838C174.192 5.54652 174.192 5.95737 174.396 6.16279C175.416 7.39535 176.741 6.06008 177.148 4.72481C177.454 3.80039 177.25 2.77326 176.129 2.77326C176.027 2.77326 176.027 2.77326 175.925 2.77326ZM163.082 2.97869C164.102 3.49225 165.834 1.12985 165.019 0.410856C164.917 0.308143 164.713 0.308143 164.611 0.308143C163.49 0.308143 162.165 2.36241 163.082 2.97869ZM167.261 1.33527C167.058 1.84884 167.058 2.46512 167.567 2.77326C168.688 3.38954 170.217 0.924422 169.402 0.308143C169.198 0.20543 168.994 0.102717 168.79 0.102717C168.077 0.102717 167.465 0.616283 167.261 1.33527ZM173.071 2.87597C174.192 3.0814 175.314 0.718996 174.498 0.20543C174.294 0.102717 174.09 3.57628e-06 173.887 3.57628e-06C172.46 3.57628e-06 171.338 2.56783 173.071 2.87597ZM179.9 -0.205423C178.677 0.102717 177.658 2.36241 178.677 3.18411C180.002 4.31396 181.225 2.97869 181.633 1.64341C181.837 0.616282 181.633 -0.308136 180.512 -0.308136C180.308 -0.308136 180.104 -0.308136 179.9 -0.205423Z" fill="black"/>
</mask>
<g mask="url(#mask0)">
<path d="M183.794 -3.82092H143.105V39.5549H183.794V-3.82092Z" fill="url(#paint0_linear)"/>
</g>
</g>
<defs>
<linearGradient id="paint0_linear" x1="143.263" y1="39.5573" x2="181.093" y2="39.5882" gradientUnits="userSpaceOnUse">
<stop stop-color="#0E4C8C"/>
<stop offset="0.3158" stop-color="#065F9C"/>
<stop offset="0.7" stop-color="#0178B6"/>
<stop offset="0.931" stop-color="#14A5DB"/>
<stop offset="1" stop-color="#19B4E9"/>
</linearGradient>
<clipPath id="clip0">
<rect width="182" height="53" fill="white"/>
</clipPath>
</defs>
</svg>
